<?xml version="1.0" standalone="no"?>
<!DOCTYPE svg PUBLIC "-//W3C//DTD SVG 20010904//EN"
 "http://www.w3.org/TR/2001/REC-SVG-20010904/DTD/svg10.dtd">
<svg version="1.0" xmlns="http://www.w3.org/2000/svg"
 width="1018.000000pt" height="1018.000000pt" viewBox="0 0 1018.000000 1018.000000"
 preserveAspectRatio="xMidYMid meet">
<metadata>
Created by potrace 1.14, written by Peter Selinger 2001-2017
</metadata>
<g transform="translate(0.000000,1018.000000) scale(0.100000,-0.100000)"
fill="#000000" stroke="none">
<path d="M3420 10169 c-303 -23 -516 -91 -731 -234 -299 -199 -514 -529 -574
-880 -37 -218 -38 -280 -42 -2182 l-4 -1873 -76 -35 c-106 -49 -93 -53 55 -20
22 5 22 5 22 -120 0 -89 -3 -125 -12 -125 -6 0 -9 -2 -7 -5 3 -2 68 14 144 36
360 104 751 172 1135 199 189 13 608 13 802 0 1173 -80 2354 -520 3440 -1282
136 -95 156 -113 111 -98 -63 20 -359 112 -513 159 -388 118 -979 276 -1002
269 -6 -2 24 -15 68 -27 308 -91 753 -284 1059 -461 529 -305 973 -700 1278
-1136 31 -45 57 -84 57 -86 0 -3 -116 52 -257 122 -828 411 -1750 780 -2558
1025 -718 217 -1319 341 -1925 397 -176 16 -731 16 -880 0 -374 -40 -682 -122
-965 -256 -190 -90 -392 -228 -432 -294 -28 -46 -30 -113 -5 -180 110 -288
755 -736 1825 -1268 160 -80 294 -147 297 -151 17 -17 -391 61 -590 113 -356
95 -657 207 -995 374 -250 123 -447 239 -624 366 -57 41 -105 73 -107 72 -12
-13 45 -88 130 -173 155 -155 369 -307 753 -537 112 -67 201 -123 199 -125 -6
-6 -248 93 -338 138 -43 22 -80 39 -83 39 -4 0 -5 -47 -4 -105 1 -58 -1 -108
-3 -111 -7 -6 -308 176 -462 278 -185 124 -352 256 -444 352 -79 83 -112 129
-99 142 3 3 52 -27 109 -68 212 -152 465 -298 727 -418 84 -39 155 -69 157
-67 2 2 -32 23 -77 46 -291 156 -552 343 -744 536 -195 196 -327 397 -394 602
-100 306 -42 561 178 781 136 136 313 242 591 353 80 32 141 59 135 59 -43 1
-396 -109 -548 -171 -349 -143 -570 -314 -686 -529 -56 -105 -74 -183 -74
-315 -1 -381 282 -805 769 -1152 208 -149 491 -306 734 -407 63 -27 121 -53
128 -58 8 -7 12 -42 12 -107 0 -209 32 -451 77 -591 34 -104 110 -262 173
-356 66 -98 251 -283 348 -347 150 -100 323 -173 490 -206 224 -46 240 -46
2462 -46 2222 0 2238 0 2463 46 527 106 940 519 1046 1046 47 232 46 142 46
3998 0 3407 -1 3650 -18 3791 -27 241 -77 403 -181 587 -124 223 -344 427
-577 536 -180 85 -330 121 -583 141 -154 12 -4245 11 -4406 -1z m3410 -365
c135 -25 289 -96 380 -173 44 -38 37 -38 -120 -11 -194 34 -408 60 -490 60
-167 0 -333 -38 -365 -83 -41 -59 2 -92 166 -127 52 -11 115 -27 140 -35 75
-25 178 -95 200 -137 9 -17 6 -17 -38 1 -70 27 -183 49 -313 61 -201 18 -565
23 -718 11 -164 -13 -182 -9 -182 43 0 19 8 40 18 49 103 93 631 294 897 341
110 20 323 20 425 0z m-820 -609 c52 -8 113 -18 134 -22 39 -6 156 -78 163
-99 5 -16 -142 -26 -192 -14 -148 36 -461 50 -670 29 -148 -14 -190 -14 -260
1 l-59 12 24 20 c71 57 144 74 395 92 93 7 369 -5 465 -19z m-182 -285 c34
-16 62 -34 62 -39 0 -5 -25 -17 -55 -26 -43 -12 -114 -17 -298 -20 -170 -2
-290 -10 -402 -25 -138 -18 -168 -19 -222 -9 -35 7 -63 16 -63 20 0 10 56 52
95 72 17 8 95 22 175 31 188 21 208 22 445 24 l200 2 63 -30z m-325 -295 c74
-42 76 -50 15 -71 -45 -15 -87 -17 -292 -15 -131 1 -296 -3 -365 -10 -117 -11
-131 -10 -190 8 l-65 20 44 32 c58 42 93 50 250 57 74 4 137 9 140 12 3 2 98
2 211 -2 196 -6 208 -7 252 -31z m-368 -274 c199 -32 263 -45 290 -59 46 -23
117 -73 112 -79 -3 -2 -38 -9 -78 -14 -59 -7 -94 -5 -179 10 -228 43 -462 57
-655 41 -152 -12 -285 -5 -285 14 0 20 120 85 169 91 25 4 53 8 61 10 32 8
499 -4 565 -14z m-155 -361 c154 -17 391 -61 443 -81 27 -11 76 -38 110 -62
l62 -42 -94 -3 c-70 -2 -124 3 -215 22 -264 55 -545 77 -841 64 -140 -5 -223
-1 -312 18 -38 8 -26 20 55 55 61 26 97 34 172 40 122 9 497 2 620 -11z m30
-378 c168 -27 302 -57 440 -99 120 -36 176 -69 285 -167 l50 -45 -30 0 c-46
-1 -271 36 -292 48 -55 29 -367 98 -553 123 -129 17 -644 17 -780 0 -90 -11
-123 -11 -229 2 -68 8 -126 18 -129 21 -3 3 46 29 109 59 117 56 112 54 339
80 19 2 177 3 350 1 255 -3 339 -7 440 -23z m-345 -362 c277 -23 561 -71 856
-145 134 -34 153 -42 272 -113 119 -71 145 -92 115 -92 -123 1 -306 25 -420
55 -459 120 -954 174 -1334 145 -240 -18 -574 -25 -574 -11 0 17 242 130 301
141 153 28 559 38 784 20z m-140 -370 c324 -17 626 -62 903 -135 165 -44 354
-107 447 -149 107 -50 376 -261 310 -244 -187 49 -350 97 -430 128 -313 119
-661 197 -1055 236 -204 20 -742 23 -879 5 -57 -7 -113 -8 -175 -1 -50 5 -131
12 -180 15 -49 4 -84 11 -79 16 11 11 180 72 274 98 125 35 519 49 864 31z
m-140 -380 c222 -12 336 -24 535 -56 445 -71 979 -238 1175 -368 96 -64 268
-196 262 -202 -8 -9 -390 110 -532 166 -401 157 -749 239 -1240 294 -241 27
-724 25 -948 -4 -45 -6 -179 -10 -297 -8 l-215 3 60 28 c118 56 324 118 425
129 242 25 527 31 775 18z m90 -425 c28 -3 113 -12 190 -21 345 -37 673 -108
1005 -216 192 -62 336 -119 418 -164 92 -50 350 -238 352 -256 0 -4 -33 4 -72
18 -40 14 -138 45 -218 69 -80 24 -179 58 -220 75 -401 170 -932 296 -1435
340 -218 19 -606 23 -810 9 -205 -14 -757 -20 -750 -8 7 10 154 63 279 100
115 34 185 45 341 55 61 3 112 9 115 11 7 7 742 -4 805 -12z m25 -395 c467
-43 851 -120 1210 -240 241 -81 399 -151 507 -226 103 -71 307 -234 301 -240
-2 -2 -56 17 -119 42 -63 25 -170 65 -239 89 -69 24 -185 69 -257 99 -434 180
-985 299 -1558 336 -200 13 -756 13 -935 -1 -144 -10 -657 -1 -643 11 13 13
201 70 328 100 113 27 280 45 500 54 198 9 700 -5 905 -24z m-390 -340 c474
-26 807 -74 1209 -175 446 -113 840 -260 1271 -475 372 -186 627 -341 810
-494 130 -109 412 -367 407 -373 -3 -2 -79 41 -169 95 -91 55 -242 143 -336
195 -94 53 -262 151 -374 219 -641 385 -1384 660 -2113 782 -355 60 -498 70
-935 70 -357 1 -427 -2 -595 -22 -104 -12 -212 -27 -240 -32 -27 -5 -106 -14
-175 -20 -146 -13 -437 -55 -528 -76 -36 -8 -66 -13 -69 -11 -14 14 291 133
506 198 217 66 428 95 836 118 209 12 292 12 495 1z m989 -1816 c7 -7 -87
-335 -263 -919 -19 -60 -66 -209 -104 -330 -39 -121 -68 -223 -64 -227 4 -4
29 -8 56 -10 l49 -3 37 82 c20 46 39 85 42 89 5 4 -25 -136 -38 -177 -3 -12 7
-21 37 -33 99 -40 218 -145 276 -243 53 -91 76 -179 77 -296 1 -99 3 -108 21
-112 27 -6 308 -33 425 -41 131 -9 140 -19 34 -35 -126 -19 -365 -16 -504 5
l-116 17 -89 -32 c-82 -30 -87 -33 -62 -40 26 -7 176 10 235 27 27 8 30 -14 5
-44 -14 -16 -59 -30 -183 -57 -213 -47 -206 -45 -189 -56 19 -12 226 -11 267
0 40 12 43 -5 6 -40 -29 -27 -104 -37 -306 -38 -64 -1 -119 -5 -122 -10 -9
-14 162 -51 233 -51 33 0 61 -4 61 -9 0 -13 -110 -59 -186 -77 -49 -11 -95
-15 -159 -11 -281 16 -505 220 -553 501 -14 84 -14 101 0 188 35 214 169 382
369 462 l64 26 49 213 c26 116 77 331 112 477 36 146 74 303 85 350 33 137
131 494 140 511 7 15 21 13 131 -18 68 -19 125 -37 127 -39z m56 -430 c-33
-164 -73 -303 -137 -474 -45 -121 -112 -270 -122 -270 -6 0 33 203 60 305 14
55 44 154 65 220 47 141 153 385 157 363 2 -9 -9 -73 -23 -144z"/>
<path d="M1840 4640 c-207 -61 -511 -173 -499 -184 2 -2 63 2 135 10 147 15
437 34 532 34 l62 0 0 -50 c0 -27 2 -50 5 -50 4 0 95 18 203 39 182 37 486 81
660 97 40 4 71 9 68 11 -16 17 -217 34 -451 40 -269 6 -504 -4 -737 -31 -60
-7 -108 -9 -108 -5 0 4 66 33 148 64 81 31 156 61 167 65 l20 9 -20 0 c-11 -1
-94 -22 -185 -49z"/>
</g>
</svg>
