<?xml version="1.0" encoding="UTF-8"?><svg id="Megaphone_Icon" xmlns="http://www.w3.org/2000/svg" xmlns:xlink="http://www.w3.org/1999/xlink" viewBox="0 0 120 120"><defs><style>.cls-1,.cls-2,.cls-3,.cls-4{fill:none;}.cls-1,.cls-5,.cls-3,.cls-4{stroke:#000;stroke-miterlimit:10;}.cls-6{clip-path:url(#clippath-1);}.cls-3{stroke-width:2px;}.cls-7{clip-path:url(#clippath-3);}.cls-4{stroke-width:4px;}.cls-8{clip-path:url(#clippath-2);}.cls-9{clip-path:url(#clippath);}</style><clipPath id="clippath"><path class="cls-2" d="M65.21,73.26c-3.23.59-6.8-3.42-9.45-10.46.56-.48,3.54-2.36,6.53-2.71.23.45,1.53-.37.97-.51,1.35-.25.92-2.95.28-6.22-.64-3.26-2.25-5.71-3.59-5.47-.06.02-.11.04-.18.05-3.3.98-6.39.58-7.35.41-.8-9.01,1.02-16.06,4.69-16.74,4.39-.81,9.76,7.86,12.01,19.36,2.24,11.5.49,21.48-3.9,22.29Z"/></clipPath><clipPath id="clippath-1"><polygon class="cls-2" points="71.14 51.62 140.82 84.86 120.34 -7.88 71.14 51.62"/></clipPath><clipPath id="clippath-2"><path class="cls-2" d="M31.06,73.59c.07.24,7.36-1.16,9.81-1.27,0,0-7.68-.24-10.56-10.98-2.09-7.77,3.42-13.32,3.42-13.32-4,2.13-8.98,4.23-8.98,4.23,0,0-2.66,7.5-.62,12.29,2.56,5.99,7.92,8.65,7.92,8.65"/></clipPath><clipPath id="clippath-3"><path class="cls-2" d="M26.28,73.72c-.55,11.28.99,12.36.99,12.36,0,0,2.52,1.89,7.97,2.24,1.16.07-2.35-1.65-5.95-14.2l-3-.4Z"/></clipPath></defs><ellipse class="cls-3" cx="61.24" cy="52.05" rx="11.98" ry="29.46" transform="translate(-8.6 12.28) rotate(-10.71)"/><ellipse class="cls-1" cx="63.26" cy="52.08" rx="10" ry="25.02" transform="translate(-8.57 12.66) rotate(-10.71)"/><g class="cls-9"><g id="Half"><line class="cls-1" x1="-.21" y1="43.38" x2="106.04" y2="43.38"/><line class="cls-1" x1="-.21" y1="41.38" x2="106.04" y2="41.38"/><line id="Vertical" class="cls-1" x1=".7" y1="18.76" x2=".7" y2="93.19"/><line class="cls-1" x1="-.49" y1="45.38" x2="105.75" y2="45.38"/><line class="cls-1" x1="-.47" y1="47.38" x2="105.77" y2="47.38"/><line class="cls-1" x1="-.21" y1="51.38" x2="106.04" y2="51.38"/><line class="cls-1" x1="-.6" y1="49.38" x2="105.65" y2="49.38"/><line class="cls-1" x1="-.21" y1="53.38" x2="106.04" y2="53.38"/><line class="cls-1" x1="-.47" y1="55.38" x2="105.77" y2="55.38"/><line class="cls-1" x1="-.49" y1="61.38" x2="105.75" y2="61.38"/><line class="cls-1" x1="-.49" y1="59.38" x2="105.75" y2="59.38"/><line class="cls-1" x1="-.08" y1="57.38" x2="106.16" y2="57.38"/><line class="cls-1" x1="-.49" y1="63.38" x2="105.75" y2="63.38"/><line class="cls-1" x1="-.49" y1="67.38" x2="105.75" y2="67.38"/><line class="cls-1" x1="-.49" y1="65.38" x2="105.75" y2="65.38"/><line class="cls-1" x1="-.47" y1="69.38" x2="105.77" y2="69.38"/><line class="cls-1" x1="-.21" y1="71.38" x2="106.04" y2="71.38"/><line class="cls-1" x1="-.6" y1="75.38" x2="105.65" y2="75.38"/><line class="cls-1" x1="-.6" y1="73.38" x2="105.65" y2="73.38"/><line class="cls-1" x1="-.6" y1="77.38" x2="105.65" y2="77.38"/><line class="cls-1" x1="-.49" y1="79.38" x2="105.75" y2="79.38"/><line class="cls-1" x1="-.49" y1="85.38" x2="105.75" y2="85.38"/><line class="cls-1" x1="-.49" y1="83.38" x2="105.75" y2="83.38"/><line class="cls-1" x1="-.6" y1="81.38" x2="105.65" y2="81.38"/><line class="cls-1" x1="-.47" y1="87.38" x2="105.77" y2="87.38"/><line class="cls-1" x1="-.6" y1="89.38" x2="105.65" y2="89.38"/><line class="cls-1" x1="-.6" y1="91.38" x2="105.65" y2="91.38"/><line class="cls-1" x1="-.49" y1="39.38" x2="105.75" y2="39.38"/><line class="cls-1" x1="-.6" y1="37.38" x2="105.65" y2="37.38"/><line class="cls-1" x1="-.47" y1="31.38" x2="105.77" y2="31.38"/><line class="cls-1" x1="-.47" y1="29.38" x2="105.77" y2="29.38"/><line class="cls-1" x1="-.21" y1="33.38" x2="106.04" y2="33.38"/><line class="cls-1" x1="-.21" y1="35.38" x2="106.04" y2="35.38"/><line class="cls-1" x1="-.23" y1="27.38" x2="106.02" y2="27.38"/><line class="cls-1" x1="-.21" y1="25.38" x2="106.04" y2="25.38"/><line class="cls-1" x1="-.08" y1="23.38" x2="106.16" y2="23.38"/><line class="cls-1" x1="-.49" y1="21.38" x2="105.75" y2="21.38"/></g></g><path class="cls-1" d="M62.78,60.15c-.07.01-.13.01-.19.02-3.64.35-5.77,2.02-6.31,2.5-.93-2.51-1.71-5.34-2.28-8.36-.36-1.9-.61-3.76-.77-5.54.94.17,3.94.57,7.14-.41.06-.01.11-.03.17-.05,1.31-.24,2.87,2.21,3.49,5.47.62,3.27.06,6.12-1.25,6.37Z"/><g class="cls-6"><circle class="cls-4" cx="66.95" cy="52.54" r="40.31"/><circle class="cls-4" cx="66.95" cy="52.54" r="34.26"/><circle class="cls-4" cx="66.95" cy="52.54" r="28.22"/><circle class="cls-4" cx="66.95" cy="52.54" r="22.17"/><circle class="cls-4" cx="66.95" cy="52.54" r="16.12"/></g><path class="cls-1" d="M62.78,60.15c-.07.01-.13.01-.19.02-1.25,0-2.7-2.37-3.29-5.49-.59-3.12-.11-5.86,1.07-6.32.06-.01.11-.03.17-.05,1.31-.24,2.87,2.21,3.49,5.47.62,3.27.06,6.12-1.25,6.37Z"/><path class="cls-1" d="M52.93,48.35c-.19-.03-.3-.05-.3-.05"/><path class="cls-1" d="M55.98,62.25c-.09.08-.14.13-.14.13"/><path class="cls-3" d="M23.19,75.14c-.55,11.28.99,12.36.99,12.36,2.68,2.62,6.17,4.25,12.62,3.67,1.16-.1-3.68-4.75-7.28-17.3l-6.33,1.28Z"/><g class="cls-8"><g id="Half-2"><line class="cls-1" x1="-.11" y1="43.26" x2="106.13" y2="43.26"/><line class="cls-1" x1="-.11" y1="41.26" x2="106.13" y2="41.26"/><line id="Vertical-2" class="cls-1" x1=".8" y1="18.64" x2=".8" y2="93.07"/><line class="cls-1" x1="-.4" y1="45.26" x2="105.85" y2="45.26"/><line class="cls-1" x1="-.37" y1="47.26" x2="105.87" y2="47.26"/><line class="cls-1" x1="-.11" y1="51.26" x2="106.13" y2="51.26"/><line class="cls-1" x1="-.5" y1="49.26" x2="105.74" y2="49.26"/><line class="cls-1" x1="-.11" y1="53.26" x2="106.13" y2="53.26"/><line class="cls-1" x1="-.37" y1="55.26" x2="105.87" y2="55.26"/><line class="cls-1" x1="-.4" y1="61.26" x2="105.85" y2="61.26"/><line class="cls-1" x1="-.4" y1="59.26" x2="105.85" y2="59.26"/><line class="cls-1" x1=".02" y1="57.26" x2="106.26" y2="57.26"/><line class="cls-1" x1="-.4" y1="63.26" x2="105.85" y2="63.26"/><line class="cls-1" x1="-.4" y1="67.26" x2="105.85" y2="67.26"/><line class="cls-1" x1="-.4" y1="65.26" x2="105.85" y2="65.26"/><line class="cls-1" x1="-.37" y1="69.26" x2="105.87" y2="69.26"/><line class="cls-1" x1="-.11" y1="71.26" x2="106.13" y2="71.26"/><line class="cls-1" x1="-.5" y1="75.26" x2="105.74" y2="75.26"/><line class="cls-1" x1="-.5" y1="73.26" x2="105.74" y2="73.26"/><line class="cls-1" x1="-.5" y1="77.26" x2="105.74" y2="77.26"/><line class="cls-1" x1="-.4" y1="79.26" x2="105.85" y2="79.26"/><line class="cls-1" x1="-.4" y1="85.26" x2="105.85" y2="85.26"/><line class="cls-1" x1="-.4" y1="83.26" x2="105.85" y2="83.26"/><line class="cls-1" x1="-.5" y1="81.26" x2="105.74" y2="81.26"/><line class="cls-1" x1="-.37" y1="87.26" x2="105.87" y2="87.26"/><line class="cls-1" x1="-.5" y1="89.26" x2="105.74" y2="89.26"/><line class="cls-1" x1="-.5" y1="91.26" x2="105.74" y2="91.26"/><line class="cls-1" x1="-.4" y1="39.26" x2="105.85" y2="39.26"/><line class="cls-1" x1="-.5" y1="37.26" x2="105.74" y2="37.26"/><line class="cls-1" x1="-.37" y1="31.26" x2="105.87" y2="31.26"/><line class="cls-1" x1="-.37" y1="29.26" x2="105.87" y2="29.26"/><line class="cls-1" x1="-.11" y1="33.26" x2="106.13" y2="33.26"/><line class="cls-1" x1="-.11" y1="35.26" x2="106.13" y2="35.26"/><line class="cls-1" x1="-.13" y1="27.26" x2="106.11" y2="27.26"/><line class="cls-1" x1="-.11" y1="25.26" x2="106.13" y2="25.26"/><line class="cls-1" x1=".02" y1="23.26" x2="106.26" y2="23.26"/><line class="cls-1" x1="-.4" y1="21.26" x2="105.85" y2="21.26"/></g></g><path class="cls-3" d="M48.59,33.38c-6.9,15.18-37.51,24.48-37.51,24.48,0,0-3.25,4.83-.62,11.83,2.3,6.13,7.62,7.04,7.62,7.04,0,0,26.87-9.87,39.95-.14,0,0-6.19-8.77-8.67-21.22-2.01-10.11-.77-21.99-.77-21.99Z"/><path class="cls-5" d="M22.5,53.81s-5.42,12.05,7.02,19.83l-11.45,3.09s-5.73-.81-8.14-7.68c-2.35-6.68,1.15-11.2,1.15-11.2l11.42-4.05Z"/><g class="cls-7"><g id="Half-3"><line class="cls-1" x1="-.11" y1="43.26" x2="106.13" y2="43.26"/><line class="cls-1" x1="-.11" y1="41.26" x2="106.13" y2="41.26"/><line id="Vertical-3" class="cls-1" x1=".8" y1="18.64" x2=".8" y2="93.07"/><line class="cls-1" x1="-.4" y1="45.26" x2="105.85" y2="45.26"/><line class="cls-1" x1="-.37" y1="47.26" x2="105.87" y2="47.26"/><line class="cls-1" x1="-.11" y1="51.26" x2="106.13" y2="51.26"/><line class="cls-1" x1="-.5" y1="49.26" x2="105.74" y2="49.26"/><line class="cls-1" x1="-.11" y1="53.26" x2="106.13" y2="53.26"/><line class="cls-1" x1="-.37" y1="55.26" x2="105.87" y2="55.26"/><line class="cls-1" x1="-.4" y1="61.26" x2="105.85" y2="61.26"/><line class="cls-1" x1="-.4" y1="59.26" x2="105.85" y2="59.26"/><line class="cls-1" x1=".02" y1="57.26" x2="106.26" y2="57.26"/><line class="cls-1" x1="-.4" y1="63.26" x2="105.85" y2="63.26"/><line class="cls-1" x1="-.4" y1="67.26" x2="105.85" y2="67.26"/><line class="cls-1" x1="-.4" y1="65.26" x2="105.85" y2="65.26"/><line class="cls-1" x1="-.37" y1="69.26" x2="105.87" y2="69.26"/><line class="cls-1" x1="-.11" y1="71.26" x2="106.13" y2="71.26"/><line class="cls-1" x1="-.5" y1="75.26" x2="105.74" y2="75.26"/><line class="cls-1" x1="-.5" y1="73.26" x2="105.74" y2="73.26"/><line class="cls-1" x1="-.5" y1="77.26" x2="105.74" y2="77.26"/><line class="cls-1" x1="-.4" y1="79.26" x2="105.85" y2="79.26"/><line class="cls-1" x1="-.4" y1="85.26" x2="105.85" y2="85.26"/><line class="cls-1" x1="-.4" y1="83.26" x2="105.85" y2="83.26"/><line class="cls-1" x1="-.5" y1="81.26" x2="105.74" y2="81.26"/><line class="cls-1" x1="-.37" y1="87.26" x2="105.87" y2="87.26"/><line class="cls-1" x1="-.5" y1="89.26" x2="105.74" y2="89.26"/><line class="cls-1" x1="-.5" y1="91.26" x2="105.74" y2="91.26"/><line class="cls-1" x1="-.4" y1="39.26" x2="105.85" y2="39.26"/><line class="cls-1" x1="-.5" y1="37.26" x2="105.74" y2="37.26"/><line class="cls-1" x1="-.37" y1="31.26" x2="105.87" y2="31.26"/><line class="cls-1" x1="-.37" y1="29.26" x2="105.87" y2="29.26"/><line class="cls-1" x1="-.11" y1="33.26" x2="106.13" y2="33.26"/><line class="cls-1" x1="-.11" y1="35.26" x2="106.13" y2="35.26"/><line class="cls-1" x1="-.13" y1="27.26" x2="106.11" y2="27.26"/><line class="cls-1" x1="-.11" y1="25.26" x2="106.13" y2="25.26"/><line class="cls-1" x1=".02" y1="23.26" x2="106.26" y2="23.26"/><line class="cls-1" x1="-.4" y1="21.26" x2="105.85" y2="21.26"/></g></g></svg>