<?xml version="1.0" encoding="UTF-8"?><svg id="Book_Icon_copy" xmlns="http://www.w3.org/2000/svg" xmlns:xlink="http://www.w3.org/1999/xlink" viewBox="0 0 120 120"><defs><style>.cls-1,.cls-2{stroke:#000;stroke-miterlimit:10;}.cls-1,.cls-2,.cls-3{fill:none;}.cls-2{stroke-width:2px;}.cls-3{opacity:.49;}.cls-4{clip-path:url(#clippath);}</style><clipPath id="clippath"><path class="cls-3" d="M93.62,29.89s5.6-.22,5.82.32c5.09,12.24,8.21,46.52,6.59,46.57-21.97.57-33.75,9.63-33.75,9.63,0,0-19.61-.57-34.99,9.98-.62.42-7.36-16.29-23.61-41.33-.17-.27,5.41-3.55,5.41-3.55l-1.62-2.95s5.74-4.49,7.61-4.15c1.64.29,19.1,38.24,19.95,38.01,17.7-4.73,26.25.67,26.25.67,0,0,11.36-12.46,23.87-15.71.59-.15-2.32-21.23-10.24-41.5-.65-1.66,7.08-.67,7.08-.67l1.63,4.67Z"/></clipPath></defs><path class="cls-2" d="M19.32,51.42s-3.32,1.03-5.79,3.4c13.84,21.07,22.02,38.18,23.51,41.38,4.63-2.34,16.48-10,35.67-9.55,5.45-3.19,13.83-8.28,33.32-9.87v-.11s.94-22.73-6.59-46.46c-2.36-.33-6.31.12-6.31.12"/><path class="cls-2" d="M84.38,25.96s5.03-.71,7.35-.59c6.99,21.77,9.08,43.37,9.38,46.88-18,3.18-29.03,12.4-29.03,12.4-18.75-2.14-28.17,2.95-32.61,5.08-1.14-2.89-8.21-20.12-22.15-41.41,3.09-2.79,7.76-3.92,7.76-3.92"/><path class="cls-2" d="M56.47,41.89s-15.23-8.23-32.72-.8c10.91,19.91,19.82,39.07,20.98,41.58,12.74-4.98,24.52-.77,26.55.42-.91-3.58-5.57-21.07-14.81-41.2,6.94-13.52,22.1-19.98,25.84-21.4,9.25,20.34,12.71,42.26,13.34,46.56-3.2,1.12-15.13,5.55-24.36,16.05"/><g id="Bottom_Shading"><g class="cls-4"><line class="cls-1" x1="13.01" y1="45.51" x2="119.25" y2="45.51"/><line class="cls-1" x1="13.01" y1="43.51" x2="119.25" y2="43.51"/><line id="Vertical" class="cls-1" x1="13.91" y1="20.89" x2="13.91" y2="95.32"/><line class="cls-1" x1="12.72" y1="47.51" x2="118.97" y2="47.51"/><line class="cls-1" x1="12.75" y1="49.51" x2="118.99" y2="49.51"/><line class="cls-1" x1="13.01" y1="53.51" x2="119.25" y2="53.51"/><line class="cls-1" x1="12.62" y1="51.51" x2="118.86" y2="51.51"/><line class="cls-1" x1="13.01" y1="55.51" x2="119.25" y2="55.51"/><line class="cls-1" x1="12.75" y1="57.51" x2="118.99" y2="57.51"/><line class="cls-1" x1="12.72" y1="63.51" x2="118.97" y2="63.51"/><line class="cls-1" x1="12.72" y1="61.51" x2="118.97" y2="61.51"/><line class="cls-1" x1="13.14" y1="59.51" x2="119.38" y2="59.51"/><line class="cls-1" x1="12.72" y1="65.51" x2="118.97" y2="65.51"/><line class="cls-1" x1="12.72" y1="69.51" x2="118.97" y2="69.51"/><line class="cls-1" x1="12.72" y1="67.51" x2="118.97" y2="67.51"/><line class="cls-1" x1="12.75" y1="71.51" x2="118.99" y2="71.51"/><line class="cls-1" x1="13.01" y1="73.51" x2="119.25" y2="73.51"/><line class="cls-1" x1="12.62" y1="77.51" x2="118.86" y2="77.51"/><line class="cls-1" x1="12.62" y1="75.51" x2="118.86" y2="75.51"/><line class="cls-1" x1="12.62" y1="79.51" x2="118.86" y2="79.51"/><line class="cls-1" x1="12.72" y1="81.51" x2="118.97" y2="81.51"/><line class="cls-1" x1="12.72" y1="87.51" x2="118.97" y2="87.51"/><line class="cls-1" x1="12.72" y1="85.51" x2="118.97" y2="85.51"/><line class="cls-1" x1="12.62" y1="83.51" x2="118.86" y2="83.51"/><line class="cls-1" x1="12.75" y1="89.51" x2="118.99" y2="89.51"/><line class="cls-1" x1="12.62" y1="91.51" x2="118.86" y2="91.51"/><line class="cls-1" x1="12.62" y1="93.51" x2="118.86" y2="93.51"/><line class="cls-1" x1="12.72" y1="41.51" x2="118.97" y2="41.51"/><line class="cls-1" x1="12.62" y1="39.51" x2="118.86" y2="39.51"/><line class="cls-1" x1="12.75" y1="33.51" x2="118.99" y2="33.51"/><line class="cls-1" x1="12.75" y1="31.51" x2="118.99" y2="31.51"/><line class="cls-1" x1="13.01" y1="35.51" x2="119.25" y2="35.51"/><line class="cls-1" x1="13.01" y1="37.51" x2="119.25" y2="37.51"/><line class="cls-1" x1="12.99" y1="29.51" x2="119.23" y2="29.51"/><line class="cls-1" x1="13.01" y1="27.51" x2="119.25" y2="27.51"/><line class="cls-1" x1="13.14" y1="25.51" x2="119.38" y2="25.51"/><line class="cls-1" x1="12.72" y1="23.51" x2="118.97" y2="23.51"/><line class="cls-1" x1="12.99" y1="21.51" x2="119.23" y2="21.51"/></g></g></svg>