<?xml version="1.0" encoding="UTF-8"?><svg id="Quill_Icon_copy" xmlns="http://www.w3.org/2000/svg" xmlns:xlink="http://www.w3.org/1999/xlink" viewBox="0 0 120 120"><defs><style>.cls-1,.cls-2{stroke:#000;stroke-miterlimit:10;}.cls-1,.cls-2,.cls-3{fill:none;}.cls-2{stroke-width:2px;}.cls-3{opacity:.39;}.cls-4{clip-path:url(#clippath);}</style><clipPath id="clippath"><path class="cls-3" d="M7.67,30.36c4.14.36,10.2,7.99,13.79,10.39,3.19,2.13,14.31,5.56,14.31,5.56l-13.17-.34s4.65,6.31,6.55,8.1c2.22,2.08,9.93,7.04,9.93,7.04l-3.24.53,11.2,4.83s6.38,2.07,8.1,3.38c1.03.78,2.64,2.46,2.99,3.58.92,2.93,0,12.29,0,12.29,0,0,3.8.53,4.99.96s4.3,2.33,4.3,2.33c0,0-.27-5.55-.82-7.31-.78-2.49-3.72-6.89-4.67-9.32C46.22,32.35,7.67,30.36,7.67,30.36Z"/></clipPath></defs><path class="cls-2" d="M7.93,29.73c58.27,1.95,54.65,42.72,54.62,43.04,5.53,9.44,5.01,16.19,5.01,16.19-3.27-3.13-9.82-3.94-9.82-3.94,0,0,1.33-5.46.13-11.98-3.66-7.22-11.81-5.21-22.94-12.19h4.17s-10.01-3.88-16.46-14.79h11.3c-17.34-5.55-16.95-12.29-26.02-16.32Z"/><line class="cls-2" x1="68.37" y1="90.12" x2="112.33" y2="90.12"/><path class="cls-1" d="M10.85,30.54c30.42,7.1,44.13,23.4,51.17,42.34"/><g class="cls-4"><g id="Half"><line class="cls-1" x1="-14.98" y1="45.48" x2="91.27" y2="45.48"/><line class="cls-1" x1="-14.98" y1="43.48" x2="91.27" y2="43.48"/><line class="cls-1" x1="-15.26" y1="47.48" x2="90.98" y2="47.48"/><line class="cls-1" x1="-15.24" y1="49.48" x2="91" y2="49.48"/><line class="cls-1" x1="-14.98" y1="53.48" x2="91.27" y2="53.48"/><line class="cls-1" x1="-15.37" y1="51.48" x2="90.88" y2="51.48"/><line class="cls-1" x1="-14.98" y1="55.48" x2="91.27" y2="55.48"/><line class="cls-1" x1="-15.24" y1="57.48" x2="91" y2="57.48"/><line class="cls-1" x1="-15.26" y1="63.48" x2="90.98" y2="63.48"/><line class="cls-1" x1="-15.26" y1="61.48" x2="90.98" y2="61.48"/><line class="cls-1" x1="-14.85" y1="59.48" x2="91.39" y2="59.48"/><line class="cls-1" x1="-15.26" y1="65.48" x2="90.98" y2="65.48"/><line class="cls-1" x1="-15.26" y1="69.48" x2="90.98" y2="69.48"/><line class="cls-1" x1="-15.26" y1="67.48" x2="90.98" y2="67.48"/><line class="cls-1" x1="-15.24" y1="71.48" x2="91" y2="71.48"/><line class="cls-1" x1="-14.98" y1="73.48" x2="91.27" y2="73.48"/><line class="cls-1" x1="-15.37" y1="77.48" x2="90.88" y2="77.48"/><line class="cls-1" x1="-15.37" y1="75.48" x2="90.88" y2="75.48"/><line class="cls-1" x1="-15.37" y1="79.48" x2="90.88" y2="79.48"/><line class="cls-1" x1="-15.26" y1="81.48" x2="90.98" y2="81.48"/><line class="cls-1" x1="-15.26" y1="87.48" x2="90.98" y2="87.48"/><line class="cls-1" x1="-15.26" y1="85.48" x2="90.98" y2="85.48"/><line class="cls-1" x1="-15.37" y1="83.48" x2="90.88" y2="83.48"/><line class="cls-1" x1="-15.24" y1="89.48" x2="91" y2="89.48"/><line class="cls-1" x1="-15.37" y1="91.48" x2="90.88" y2="91.48"/><line class="cls-1" x1="-15.37" y1="93.48" x2="90.88" y2="93.48"/><line class="cls-1" x1="-15.26" y1="41.48" x2="90.98" y2="41.48"/><line class="cls-1" x1="-15.37" y1="39.48" x2="90.88" y2="39.48"/><line class="cls-1" x1="-15.24" y1="33.48" x2="91" y2="33.48"/><line class="cls-1" x1="-15.24" y1="31.48" x2="91" y2="31.48"/><line class="cls-1" x1="-14.98" y1="35.48" x2="91.27" y2="35.48"/><line class="cls-1" x1="-14.98" y1="37.48" x2="91.27" y2="37.48"/><line class="cls-1" x1="-15" y1="29.48" x2="91.24" y2="29.48"/><line class="cls-1" x1="-14.98" y1="27.48" x2="91.27" y2="27.48"/><line class="cls-1" x1="-14.85" y1="25.48" x2="91.39" y2="25.48"/><line class="cls-1" x1="-15.26" y1="23.48" x2="90.98" y2="23.48"/></g></g></svg>