<?xml version="1.0" encoding="UTF-8"?><svg id="Lock_Icon_copy" xmlns="http://www.w3.org/2000/svg" xmlns:xlink="http://www.w3.org/1999/xlink" viewBox="0 0 120 120"><defs><style>.cls-1,.cls-2,.cls-3{stroke:#000;stroke-miterlimit:10;}.cls-1,.cls-3{fill:none;}.cls-4{clip-path:url(#clippath-1);}.cls-3{stroke-width:2px;}.cls-5{clip-path:url(#clippath);}</style><clipPath id="clippath"><polyline class="cls-1" points="59.99 101.98 33.84 101.98 33.84 49.67 59.99 49.67"/></clipPath><clipPath id="clippath-1"><path class="cls-3" d="M45.57,41.59v-8.03c0-7.97,6.46-14.42,14.42-14.42s14.42,6.46,14.42,14.42c0,0,0,5.66,0,8.03h9.5c0-2.37,0-8.03,0-8.03,0-13.21-10.71-23.93-23.93-23.93s-23.92,10.7-23.93,23.91c0,.71,0,5.84,0,8.05.13,0,9.47,0,9.5,0Z"/></clipPath></defs><rect class="cls-3" x="29.99" y="45.82" width="60" height="60"/><path id="FullLock" class="cls-2" d="M67.06,68.77c0,2.89-1.73,5.37-4.21,6.45v12.52h-5.71v-12.52c-2.48-1.09-4.21-3.57-4.21-6.45,0-3.91,3.16-7.07,7.07-7.07s7.06,3.16,7.06,7.07Z"/><path id="HalfLock" class="cls-2" d="M60,61.7c3.9,0,7.06,3.16,7.06,7.07,0,2.89-1.73,5.37-4.21,6.45v12.52h-2.85"/><g class="cls-5"><line class="cls-1" x1="7.76" y1="65.75" x2="114" y2="65.75"/><line class="cls-1" x1="7.76" y1="63.75" x2="114" y2="63.75"/><line id="Vertical" class="cls-1" x1="8.66" y1="41.13" x2="8.66" y2="115.55"/><line class="cls-1" x1="7.47" y1="67.75" x2="113.72" y2="67.75"/><line class="cls-1" x1="7.49" y1="69.75" x2="113.74" y2="69.75"/><line class="cls-1" x1="7.76" y1="73.75" x2="114" y2="73.75"/><line class="cls-1" x1="7.37" y1="71.75" x2="113.61" y2="71.75"/><line class="cls-1" x1="7.76" y1="75.75" x2="114" y2="75.75"/><line class="cls-1" x1="7.49" y1="77.75" x2="113.74" y2="77.75"/><line class="cls-1" x1="7.47" y1="83.75" x2="113.72" y2="83.75"/><line class="cls-1" x1="7.47" y1="81.75" x2="113.72" y2="81.75"/><line class="cls-1" x1="7.88" y1="79.75" x2="114.13" y2="79.75"/><line class="cls-1" x1="7.47" y1="85.75" x2="113.72" y2="85.75"/><line class="cls-1" x1="7.47" y1="89.75" x2="113.72" y2="89.75"/><line class="cls-1" x1="7.47" y1="87.75" x2="113.72" y2="87.75"/><line class="cls-1" x1="7.49" y1="91.75" x2="113.74" y2="91.75"/><line class="cls-1" x1="7.76" y1="93.75" x2="114" y2="93.75"/><line class="cls-1" x1="7.37" y1="97.75" x2="113.61" y2="97.75"/><line class="cls-1" x1="7.37" y1="95.75" x2="113.61" y2="95.75"/><line class="cls-1" x1="7.37" y1="99.75" x2="113.61" y2="99.75"/><line class="cls-1" x1="7.47" y1="101.75" x2="113.72" y2="101.75"/><line class="cls-1" x1="7.47" y1="107.75" x2="113.72" y2="107.75"/><line class="cls-1" x1="7.47" y1="105.75" x2="113.72" y2="105.75"/><line class="cls-1" x1="7.37" y1="103.75" x2="113.61" y2="103.75"/><line class="cls-1" x1="7.49" y1="109.75" x2="113.74" y2="109.75"/><line class="cls-1" x1="7.37" y1="111.75" x2="113.61" y2="111.75"/><line class="cls-1" x1="7.37" y1="113.75" x2="113.61" y2="113.75"/><line class="cls-1" x1="7.47" y1="61.75" x2="113.72" y2="61.75"/><line class="cls-1" x1="7.37" y1="59.75" x2="113.61" y2="59.75"/><line class="cls-1" x1="7.49" y1="53.75" x2="113.74" y2="53.75"/><line class="cls-1" x1="7.49" y1="51.75" x2="113.74" y2="51.75"/><line class="cls-1" x1="7.76" y1="55.75" x2="114" y2="55.75"/><line class="cls-1" x1="7.76" y1="57.75" x2="114" y2="57.75"/><line class="cls-1" x1="7.74" y1="49.75" x2="113.98" y2="49.75"/><line class="cls-1" x1="7.76" y1="47.75" x2="114" y2="47.75"/><line class="cls-1" x1="7.88" y1="45.75" x2="114.13" y2="45.75"/><line class="cls-1" x1="7.47" y1="43.75" x2="113.72" y2="43.75"/><polyline class="cls-1" points="113.98 41.75 7.74 41.75 113.98 41.75"/></g><polyline class="cls-1" points="59.99 101.98 33.84 101.98 33.84 49.67 59.99 49.67"/><g class="cls-4"><g id="Half"><line class="cls-1" x1="-39.1" y1="43.08" x2="67.14" y2="43.08"/><line class="cls-1" x1="-39.1" y1="41.08" x2="67.14" y2="41.08"/><line class="cls-1" x1="-39.39" y1="45.08" x2="66.85" y2="45.08"/><line class="cls-1" x1="-39.37" y1="47.08" x2="66.88" y2="47.08"/><line class="cls-1" x1="-39.1" y1="51.08" x2="67.14" y2="51.08"/><line class="cls-1" x1="-39.49" y1="49.08" x2="66.75" y2="49.08"/><line class="cls-1" x1="-39.1" y1="53.08" x2="67.14" y2="53.08"/><line class="cls-1" x1="-39.37" y1="55.08" x2="66.88" y2="55.08"/><line class="cls-1" x1="-39.39" y1="61.08" x2="66.85" y2="61.08"/><line class="cls-1" x1="-39.39" y1="59.08" x2="66.85" y2="59.08"/><line class="cls-1" x1="-38.98" y1="57.08" x2="67.27" y2="57.08"/><line class="cls-1" x1="-39.39" y1="63.08" x2="66.85" y2="63.08"/><line class="cls-1" x1="-39.39" y1="67.08" x2="66.85" y2="67.08"/><line class="cls-1" x1="-39.39" y1="65.08" x2="66.85" y2="65.08"/><line class="cls-1" x1="-39.37" y1="69.08" x2="66.88" y2="69.08"/><line class="cls-1" x1="-39.1" y1="71.08" x2="67.14" y2="71.08"/><line class="cls-1" x1="-39.49" y1="75.08" x2="66.75" y2="75.08"/><line class="cls-1" x1="-39.49" y1="73.08" x2="66.75" y2="73.08"/><line class="cls-1" x1="-39.49" y1="77.08" x2="66.75" y2="77.08"/><line class="cls-1" x1="-39.39" y1="79.08" x2="66.85" y2="79.08"/><line class="cls-1" x1="-39.39" y1="85.08" x2="66.85" y2="85.08"/><line class="cls-1" x1="-39.39" y1="83.08" x2="66.85" y2="83.08"/><line class="cls-1" x1="-39.49" y1="81.08" x2="66.75" y2="81.08"/><line class="cls-1" x1="-39.37" y1="87.08" x2="66.88" y2="87.08"/><line class="cls-1" x1="-39.49" y1="89.08" x2="66.75" y2="89.08"/><line class="cls-1" x1="-39.49" y1="91.08" x2="66.75" y2="91.08"/><line class="cls-1" x1="-39.39" y1="39.08" x2="66.85" y2="39.08"/><line class="cls-1" x1="-39.49" y1="37.08" x2="66.75" y2="37.08"/><line class="cls-1" x1="-39.37" y1="31.08" x2="66.88" y2="31.08"/><line class="cls-1" x1="-39.37" y1="29.08" x2="66.88" y2="29.08"/><line class="cls-1" x1="-39.1" y1="33.08" x2="67.14" y2="33.08"/><line class="cls-1" x1="-39.1" y1="35.08" x2="67.14" y2="35.08"/><line class="cls-1" x1="-39.13" y1="27.08" x2="67.12" y2="27.08"/><line class="cls-1" x1="-39.1" y1="25.08" x2="67.14" y2="25.08"/><line class="cls-1" x1="-38.98" y1="23.08" x2="67.27" y2="23.08"/><line class="cls-1" x1="-39.39" y1="21.08" x2="66.85" y2="21.08"/></g></g><path class="cls-3" d="M45.57,41.59v-8.03c0-7.97,6.46-14.42,14.42-14.42s14.42,6.46,14.42,14.42c0,0,0,5.66,0,8.03h9.5c0-2.37,0-8.03,0-8.03,0-13.21-10.71-23.93-23.93-23.93s-23.92,10.7-23.93,23.91c0,.71,0,5.84,0,8.05.13,0,9.47,0,9.5,0Z"/></svg>