<?xml version="1.0" encoding="UTF-8"?><svg id="History_Icon" xmlns="http://www.w3.org/2000/svg" xmlns:xlink="http://www.w3.org/1999/xlink" viewBox="0 0 120 120"><defs><style>.cls-1,.cls-2,.cls-3{stroke:#000;stroke-miterlimit:10;}.cls-1,.cls-4,.cls-3{fill:none;}.cls-2,.cls-3{stroke-width:2px;}.cls-5{clip-path:url(#clippath-1);}.cls-6{clip-path:url(#clippath);}</style><clipPath id="clippath"><rect class="cls-4" x="16.02" y="26.75" width="44.12" height="8.91"/></clipPath><clipPath id="clippath-1"><path class="cls-4" d="M59.7,94.3H16.02v-50.92h18.64v25.71h.02c.12,13.8,11.24,24.98,25.02,25.21Z"/></clipPath></defs><rect class="cls-3" x="12.36" y="22.99" width="95" height="75"/><line class="cls-3" x1="12.64" y1="39.62" x2="107.64" y2="39.62"/><path class="cls-3" d="M44.47,56.91c3.66-4.61,9.32-7.57,15.67-7.57,11.05,0,20,8.95,20,20s-8.95,20-20,20c-6.34,0-11.99-2.95-15.65-7.55"/><line class="cls-3" x1="60.14" y1="55.03" x2="60.14" y2="70.2"/><line class="cls-3" x1="59.14" y1="69.34" x2="70.37" y2="69.34"/><polyline class="cls-3" points="51.47 56.79 44.47 56.79 44.47 49.79"/><circle class="cls-2" cx="79.64" cy="31.04" r="2"/><circle class="cls-2" cx="89.64" cy="31.04" r="2"/><circle class="cls-2" cx="99.64" cy="31.04" r="2"/><g id="Top_Shading_copy_2"><g class="cls-6"><line class="cls-1" x1="15.66" y1="41.24" x2="82.38" y2="41.24"/><line class="cls-1" x1="15.66" y1="39.24" x2="82.38" y2="39.24"/><line id="Vertical" class="cls-1" x1="16.41" y1="16.72" x2="16.41" y2="97.7"/><line class="cls-1" x1="15.83" y1="43.24" x2="82.55" y2="43.24"/><line class="cls-1" x1="16.04" y1="45.24" x2="78.34" y2="45.24"/><line class="cls-1" x1="14.61" y1="49.24" x2="81.33" y2="49.24"/><line class="cls-1" x1="14.61" y1="47.24" x2="81.33" y2="47.24"/><line class="cls-1" x1="16.21" y1="51.24" x2="81.5" y2="51.24"/><line class="cls-1" x1="15.83" y1="53.24" x2="77.29" y2="53.24"/><line class="cls-1" x1="16.15" y1="59.24" x2="82.87" y2="59.24"/><line class="cls-1" x1="16.15" y1="57.24" x2="82.87" y2="57.24"/><line class="cls-1" x1="15.83" y1="37.24" x2="82.55" y2="37.24"/><line class="cls-1" x1="15.09" y1="61.24" x2="81.81" y2="61.24"/><line class="cls-1" x1="15.66" y1="65.24" x2="82.38" y2="65.24"/><line class="cls-1" x1="15.66" y1="63.24" x2="82.38" y2="63.24"/><line class="cls-1" x1="15.83" y1="67.24" x2="82.55" y2="67.24"/><line class="cls-1" x1="16.04" y1="69.24" x2="78.34" y2="69.24"/><line class="cls-1" x1="14.61" y1="73.24" x2="81.33" y2="73.24"/><line class="cls-1" x1="14.61" y1="71.24" x2="81.33" y2="71.24"/><line class="cls-1" x1="14.78" y1="75.24" x2="81.5" y2="75.24"/><line class="cls-1" x1="16.21" y1="77.24" x2="77.29" y2="77.24"/><line class="cls-1" x1="16.15" y1="83.24" x2="82.87" y2="83.24"/><line class="cls-1" x1="16.15" y1="81.24" x2="82.87" y2="81.24"/><line class="cls-1" x1="16.09" y1="79.24" x2="82.81" y2="79.24"/><line class="cls-1" x1="15.09" y1="85.24" x2="81.81" y2="85.24"/><line class="cls-1" x1="14.61" y1="87.24" x2="81.33" y2="87.24"/><line class="cls-1" x1="15.83" y1="89.24" x2="82.55" y2="89.24"/><line class="cls-1" x1="16.76" y1="54.98" x2="83.48" y2="54.98"/><line class="cls-1" x1="16.15" y1="35.24" x2="82.87" y2="35.24"/><line class="cls-1" x1="16.27" y1="29.24" x2="82.99" y2="29.24"/><line class="cls-1" x1="16.27" y1="27.24" x2="82.99" y2="27.24"/><line class="cls-1" x1="16.44" y1="31.24" x2="83.16" y2="31.24"/><line class="cls-1" x1="16.64" y1="33.24" x2="78.94" y2="33.24"/><line class="cls-1" x1="16.44" y1="25.24" x2="83.16" y2="25.24"/><line class="cls-1" x1="16.76" y1="23.24" x2="83.48" y2="23.24"/><line class="cls-1" x1="16.7" y1="91.24" x2="83.42" y2="91.24"/><line class="cls-1" x1="16.7" y1="93.24" x2="83.42" y2="93.24"/><line class="cls-1" x1="16.41" y1="95.24" x2="83.13" y2="95.24"/></g></g><g id="Bottom_Shading_copy_2"><g class="cls-5"><line class="cls-1" x1="15.66" y1="41.85" x2="82.38" y2="41.85"/><line class="cls-1" x1="15.66" y1="39.85" x2="82.38" y2="39.85"/><line id="Vertical-2" class="cls-1" x1="16.41" y1="17.33" x2="16.41" y2="98.32"/><line class="cls-1" x1="15.83" y1="43.85" x2="82.55" y2="43.85"/><line class="cls-1" x1="16.04" y1="45.85" x2="78.34" y2="45.85"/><line class="cls-1" x1="14.61" y1="49.85" x2="81.33" y2="49.85"/><line class="cls-1" x1="14.61" y1="47.85" x2="81.33" y2="47.85"/><line class="cls-1" x1="16.21" y1="51.85" x2="81.5" y2="51.85"/><line class="cls-1" x1="15.83" y1="53.85" x2="77.29" y2="53.85"/><line class="cls-1" x1="16.15" y1="59.85" x2="82.87" y2="59.85"/><line class="cls-1" x1="16.15" y1="57.85" x2="82.87" y2="57.85"/><line class="cls-1" x1="15.83" y1="37.85" x2="82.55" y2="37.85"/><line class="cls-1" x1="15.09" y1="61.85" x2="81.81" y2="61.85"/><line class="cls-1" x1="15.66" y1="65.85" x2="82.38" y2="65.85"/><line class="cls-1" x1="15.66" y1="63.85" x2="82.38" y2="63.85"/><line class="cls-1" x1="15.83" y1="67.85" x2="82.55" y2="67.85"/><line class="cls-1" x1="16.04" y1="69.85" x2="78.34" y2="69.85"/><line class="cls-1" x1="14.61" y1="73.85" x2="81.33" y2="73.85"/><line class="cls-1" x1="14.61" y1="71.85" x2="81.33" y2="71.85"/><line class="cls-1" x1="14.78" y1="75.85" x2="81.5" y2="75.85"/><line class="cls-1" x1="16.21" y1="77.85" x2="77.29" y2="77.85"/><line class="cls-1" x1="16.15" y1="83.85" x2="82.87" y2="83.85"/><line class="cls-1" x1="16.15" y1="81.85" x2="82.87" y2="81.85"/><line class="cls-1" x1="16.09" y1="79.85" x2="82.81" y2="79.85"/><line class="cls-1" x1="15.09" y1="85.85" x2="81.81" y2="85.85"/><line class="cls-1" x1="14.61" y1="87.85" x2="81.33" y2="87.85"/><line class="cls-1" x1="15.83" y1="89.85" x2="82.55" y2="89.85"/><line class="cls-1" x1="16.76" y1="55.59" x2="83.48" y2="55.59"/><line class="cls-1" x1="16.15" y1="35.85" x2="82.87" y2="35.85"/><line class="cls-1" x1="16.27" y1="29.85" x2="82.99" y2="29.85"/><line class="cls-1" x1="16.27" y1="27.85" x2="82.99" y2="27.85"/><line class="cls-1" x1="16.44" y1="31.85" x2="83.16" y2="31.85"/><line class="cls-1" x1="16.64" y1="33.85" x2="78.94" y2="33.85"/><line class="cls-1" x1="16.44" y1="25.85" x2="83.16" y2="25.85"/><line class="cls-1" x1="16.76" y1="23.85" x2="83.48" y2="23.85"/><line class="cls-1" x1="16.7" y1="91.85" x2="83.42" y2="91.85"/><line class="cls-1" x1="16.7" y1="93.85" x2="83.42" y2="93.85"/><line class="cls-1" x1="16.41" y1="95.85" x2="83.13" y2="95.85"/></g></g></svg>