<?xml version="1.0" encoding="UTF-8"?><svg id="Envelope_Icon" xmlns="http://www.w3.org/2000/svg" xmlns:xlink="http://www.w3.org/1999/xlink" viewBox="0 0 120 120"><defs><style>.cls-1,.cls-2,.cls-3{fill:none;}.cls-1,.cls-3{stroke:#000;stroke-miterlimit:10;}.cls-3{stroke-width:2px;}.cls-4{clip-path:url(#clippath-3);}.cls-5{clip-path:url(#clippath-2);}</style><clipPath id="clippath-2"><polygon class="cls-2" points="82.99 88.71 53.29 65.54 23.75 88.59 82.99 88.71"/></clipPath><clipPath id="clippath-3"><polygon id="Top_Clip" class="cls-2" points="15.88 35.96 46.3 59.87 15.78 83.77 15.88 35.96"/></clipPath></defs><g id="Frame"><polygon class="cls-3" points="107.53 91.83 60.03 91.83 12.53 91.83 12.53 27.32 60.03 27.32 107.53 27.32 107.53 91.83"/><polyline class="cls-3" points="12.53 27.32 60.03 64.25 107.53 27.32"/><line class="cls-3" x1="53.78" y1="59.58" x2="12.53" y2="91.64"/><line class="cls-3" x1="107.53" y1="91.64" x2="66.29" y2="59.58"/></g><g id="Bottom_Shading"><g class="cls-5"><line class="cls-1" x1="16.17" y1="39.92" x2="82.89" y2="39.92"/><line class="cls-1" x1="16.17" y1="37.92" x2="82.89" y2="37.92"/><line id="Vertical" class="cls-1" x1="16.66" y1="23" x2="16.66" y2="89.72"/><line class="cls-1" x1="16.34" y1="41.92" x2="83.06" y2="41.92"/><line class="cls-1" x1="12.13" y1="43.92" x2="78.85" y2="43.92"/><line class="cls-1" x1="15.12" y1="47.92" x2="81.84" y2="47.92"/><line class="cls-1" x1="15.12" y1="45.92" x2="81.84" y2="45.92"/><line class="cls-1" x1="15.29" y1="49.92" x2="82.01" y2="49.92"/><line class="cls-1" x1="11.08" y1="51.92" x2="77.8" y2="51.92"/><line class="cls-1" x1="16.66" y1="57.92" x2="83.38" y2="57.92"/><line class="cls-1" x1="16.66" y1="55.92" x2="83.38" y2="55.92"/><line class="cls-1" x1="16.92" y1="53.92" x2="83.64" y2="53.92"/><line class="cls-1" x1="15.6" y1="59.92" x2="82.32" y2="59.92"/><line class="cls-1" x1="16.17" y1="63.92" x2="82.89" y2="63.92"/><line class="cls-1" x1="16.17" y1="61.92" x2="82.89" y2="61.92"/><line class="cls-1" x1="16.34" y1="65.92" x2="83.06" y2="65.92"/><line class="cls-1" x1="12.13" y1="67.92" x2="78.85" y2="67.92"/><line class="cls-1" x1="15.12" y1="71.92" x2="81.84" y2="71.92"/><line class="cls-1" x1="15.12" y1="69.92" x2="81.84" y2="69.92"/><line class="cls-1" x1="15.29" y1="73.92" x2="82.01" y2="73.92"/><line class="cls-1" x1="11.08" y1="75.92" x2="77.8" y2="75.92"/><line class="cls-1" x1="16.66" y1="81.92" x2="83.38" y2="81.92"/><line class="cls-1" x1="16.66" y1="79.92" x2="83.38" y2="79.92"/><line class="cls-1" x1="16.92" y1="77.92" x2="83.64" y2="77.92"/><line class="cls-1" x1="15.6" y1="83.92" x2="82.32" y2="83.92"/><line class="cls-1" x1="15.12" y1="85.92" x2="81.84" y2="85.92"/><line class="cls-1" x1="16.34" y1="87.92" x2="83.06" y2="87.92"/><line class="cls-1" x1="25.33" y1="87.92" x2="53.37" y2="65.92"/></g></g><g id="Top_Shading"><g class="cls-4"><line class="cls-1" x1="15.53" y1="39.92" x2="82.24" y2="39.92"/><line class="cls-1" x1="15.53" y1="37.92" x2="82.24" y2="37.92"/><line id="Vertical-2" class="cls-1" x1="16.27" y1="23" x2="16.27" y2="89.72"/><line class="cls-1" x1="15.69" y1="41.92" x2="82.41" y2="41.92"/><line class="cls-1" x1="11.48" y1="43.92" x2="78.2" y2="43.92"/><line class="cls-1" x1="14.47" y1="47.92" x2="81.19" y2="47.92"/><line class="cls-1" x1="14.47" y1="45.92" x2="81.19" y2="45.92"/><line class="cls-1" x1="14.64" y1="49.92" x2="81.36" y2="49.92"/><line class="cls-1" x1="10.43" y1="51.92" x2="77.15" y2="51.92"/><line class="cls-1" x1="16.01" y1="57.92" x2="82.73" y2="57.92"/><line class="cls-1" x1="16.01" y1="55.92" x2="82.73" y2="55.92"/><line class="cls-1" x1="16.27" y1="53.92" x2="82.99" y2="53.92"/><line class="cls-1" x1="14.95" y1="59.92" x2="81.67" y2="59.92"/><line class="cls-1" x1="15.53" y1="63.92" x2="82.24" y2="63.92"/><line class="cls-1" x1="15.53" y1="61.92" x2="82.24" y2="61.92"/><line class="cls-1" x1="15.69" y1="65.92" x2="82.41" y2="65.92"/><line class="cls-1" x1="11.48" y1="67.92" x2="78.2" y2="67.92"/><line class="cls-1" x1="14.47" y1="71.92" x2="81.19" y2="71.92"/><line class="cls-1" x1="14.47" y1="69.92" x2="81.19" y2="69.92"/><line class="cls-1" x1="14.64" y1="73.92" x2="81.36" y2="73.92"/><line class="cls-1" x1="10.43" y1="75.92" x2="77.15" y2="75.92"/><line class="cls-1" x1="16.01" y1="81.92" x2="82.73" y2="81.92"/><line class="cls-1" x1="16.01" y1="79.92" x2="82.73" y2="79.92"/><line class="cls-1" x1="15.95" y1="77.92" x2="82.67" y2="77.92"/><line class="cls-1" x1="14.95" y1="83.92" x2="81.67" y2="83.92"/><line class="cls-1" x1="14.47" y1="85.92" x2="81.19" y2="85.92"/><line class="cls-1" x1="15.69" y1="87.92" x2="82.41" y2="87.92"/><line id="Top_Border" class="cls-1" x1="16.34" y1="82.82" x2="45.68" y2="59.87"/></g></g></svg>