<?xml version="1.0" standalone="no"?>
<!DOCTYPE svg PUBLIC "-//W3C//DTD SVG 20010904//EN"
 "http://www.w3.org/TR/2001/REC-SVG-20010904/DTD/svg10.dtd">
<svg version="1.0" xmlns="http://www.w3.org/2000/svg"
 width="900.000000pt" height="900.000000pt" viewBox="0 0 900.000000 900.000000"
 preserveAspectRatio="xMidYMid meet">
<metadata>
Created by potrace 1.10, written by Peter Selinger 2001-2011
</metadata>
<g transform="translate(0.000000,900.000000) scale(0.100000,-0.100000)"
fill="#000000" stroke="none">
<path d="M6165 8543 c-121 -19 -333 -79 -422 -119 -17 -8 -38 -14 -46 -14 -9
0 -18 -4 -22 -9 -3 -5 -20 -13 -37 -17 -18 -3 -39 -10 -48 -15 -8 -4 -63 -31
-122 -60 -59 -29 -117 -63 -129 -76 -19 -20 -21 -26 -10 -49 l12 -27 102 9
c144 13 401 11 609 -3 175 -13 235 -22 312 -49 69 -24 60 1 -18 51 -54 34 -90
47 -191 70 -115 26 -147 36 -171 53 -44 32 -23 77 55 117 55 28 239 40 400 27
130 -11 161 -15 331 -48 101 -19 100 -19 56 19 -48 42 -106 72 -221 115 -52
19 -207 42 -280 41 -38 -1 -110 -8 -160 -16z"/>
<path d="M5270 8003 c-119 -11 -154 -18 -198 -40 -29 -15 -55 -30 -58 -34 -6
-10 56 -22 110 -21 22 0 156 4 296 7 246 7 287 5 445 -24 57 -10 177 -3 169
11 -13 20 -84 57 -140 72 -67 18 -342 47 -424 45 -30 -1 -120 -8 -200 -16z"/>
<path d="M5110 7755 c-91 -8 -188 -18 -215 -24 -57 -10 -125 -46 -125 -66 0
-21 85 -27 185 -15 183 23 264 29 452 29 116 1 194 5 198 11 3 6 15 10 25 10
36 0 30 19 -12 41 -37 19 -62 22 -193 25 -82 1 -224 -4 -315 -11z"/>
<path d="M4860 7507 c-3 -3 -58 -10 -122 -16 -120 -12 -181 -32 -176 -60 5
-27 62 -31 273 -21 115 6 265 8 335 5 110 -6 130 -5 169 12 l43 19 -58 29
c-58 29 -60 30 -259 33 -110 2 -202 2 -205 -1z"/>
<path d="M4485 7241 c-70 -6 -164 -43 -172 -68 -7 -20 101 -36 158 -24 63 14
366 14 456 1 38 -5 100 -15 138 -22 98 -16 275 -22 275 -9 0 15 -69 57 -116
71 -157 45 -514 70 -739 51z"/>
<path d="M4280 6913 c-30 -2 -69 -10 -87 -18 -17 -8 -35 -15 -40 -15 -4 0 -19
-9 -32 -19 l-24 -18 69 -9 c38 -4 76 -7 84 -6 8 1 121 2 251 3 257 1 419 -14
619 -57 41 -9 120 -18 175 -20 l100 -4 -25 19 c-72 57 -158 84 -365 117 -191
30 -501 41 -725 27z"/>
<path d="M4105 6580 c-50 -4 -112 -16 -140 -27 -93 -37 -155 -67 -155 -74 0
-4 32 -13 70 -19 72 -12 138 -11 405 9 315 24 709 -21 970 -111 33 -11 98 -26
145 -34 47 -7 103 -16 125 -19 l40 -6 -48 45 c-63 59 -138 108 -190 122 -23 6
-69 19 -102 29 -139 40 -304 71 -455 85 -110 10 -533 10 -665 0z"/>
<path d="M4010 6246 c-3 -2 -41 -9 -85 -15 -98 -14 -304 -98 -278 -114 18 -11
246 -9 398 3 172 14 542 8 670 -11 39 -5 104 -14 145 -19 41 -5 95 -14 120
-19 25 -6 79 -17 120 -26 124 -26 244 -55 268 -65 13 -6 74 -14 136 -20 62 -5
128 -13 147 -16 l34 -7 -20 23 c-11 12 -38 31 -60 42 -22 12 -42 24 -45 27
-13 16 -124 64 -177 76 -32 7 -87 20 -123 29 -146 36 -320 68 -505 93 -114 15
-733 31 -745 19z"/>
<path d="M3802 5905 c-97 -12 -176 -31 -247 -61 -16 -6 -39 -14 -49 -16 -33
-5 -29 -26 6 -34 18 -4 150 -5 293 -3 360 6 734 0 835 -12 47 -6 121 -14 165
-20 44 -5 100 -13 125 -19 49 -10 127 -26 203 -40 26 -5 62 -13 80 -19 17 -5
79 -25 137 -42 58 -18 152 -50 210 -72 58 -22 130 -45 160 -52 48 -11 96 -24
190 -50 20 -6 15 2 -25 39 -51 47 -188 146 -202 146 -5 0 -20 6 -34 14 -15 7
-55 23 -90 35 -35 12 -73 26 -84 31 -18 8 -47 16 -170 51 -180 50 -390 89
-625 115 -183 21 -738 27 -878 9z"/>
<path d="M3775 5569 c-147 -8 -259 -27 -322 -55 -17 -8 -40 -14 -51 -14 -12 0
-23 -4 -27 -9 -3 -5 -19 -12 -35 -16 -16 -4 -46 -15 -67 -25 l-38 -19 206 -1
c120 0 230 5 265 12 83 16 670 17 794 0 52 -6 131 -17 175 -22 76 -10 190 -28
300 -49 98 -18 374 -94 407 -112 10 -5 26 -9 35 -9 10 0 30 -6 45 -14 15 -8
40 -17 57 -21 17 -4 33 -11 36 -16 4 -5 13 -9 21 -9 8 0 36 -9 62 -21 26 -11
56 -24 67 -29 27 -11 112 -36 155 -45 19 -4 41 -11 50 -15 32 -16 128 -42 140
-38 6 2 -9 18 -34 36 -25 18 -51 38 -58 45 -51 48 -180 123 -273 158 -33 13
-64 27 -69 31 -6 4 -16 8 -24 8 -8 0 -28 6 -45 14 -36 15 -92 34 -182 61 -33
9 -73 22 -90 27 -51 17 -240 60 -365 84 -326 63 -730 85 -1135 63z"/>
<path d="M3690 5199 c-253 -11 -293 -18 -523 -92 -83 -27 -94 -33 -75 -40 27
-11 491 -1 618 13 118 12 386 12 565 0 215 -15 465 -43 545 -60 25 -5 72 -14
105 -21 120 -22 267 -57 355 -83 30 -9 73 -21 95 -27 22 -6 44 -14 50 -20 5
-5 17 -9 26 -9 23 0 191 -63 284 -106 17 -8 45 -17 63 -20 18 -4 35 -11 38
-15 3 -5 14 -9 25 -9 10 0 68 -17 129 -37 101 -34 147 -38 109 -10 -9 7 -29
22 -45 35 -85 66 -176 126 -234 153 -36 17 -72 34 -80 38 -9 5 -30 12 -48 15
-17 4 -34 12 -37 17 -4 5 -14 9 -23 9 -9 0 -29 6 -44 14 -15 8 -41 17 -59 21
-19 4 -40 11 -49 16 -8 4 -49 18 -90 29 -41 12 -86 25 -100 30 -45 14 -250 63
-345 81 -385 73 -794 99 -1255 78z"/>
<path d="M3690 4867 c-3 -3 -66 -8 -140 -12 -250 -13 -297 -20 -480 -69 -138
-37 -154 -42 -145 -48 16 -9 415 -11 825 -3 372 7 471 4 780 -25 58 -5 132
-14 165 -20 33 -5 89 -15 125 -21 36 -6 99 -17 140 -25 41 -8 99 -19 129 -25
29 -5 62 -14 72 -19 10 -6 27 -10 38 -10 11 0 40 -6 63 -13 24 -8 77 -24 118
-36 41 -13 84 -26 95 -31 11 -4 61 -22 110 -40 82 -30 125 -47 210 -85 17 -7
71 -27 120 -43 89 -30 141 -50 202 -78 17 -8 39 -14 50 -14 14 0 11 7 -17 33
-81 73 -220 172 -295 209 -16 8 -45 22 -63 31 -19 9 -38 17 -44 17 -5 0 -26 7
-46 16 -21 9 -52 22 -70 30 -18 8 -37 14 -42 14 -5 0 -21 5 -37 12 -62 26
-269 85 -393 114 -317 72 -528 101 -930 128 -126 9 -535 19 -540 13z"/>
<path d="M3585 4535 c-5 -3 -91 -12 -190 -20 -200 -17 -332 -36 -415 -59 -123
-34 -145 -41 -155 -47 -5 -4 -26 -10 -45 -14 -19 -4 -39 -11 -45 -14 -5 -4
-40 -18 -78 -30 -37 -12 -79 -29 -95 -37 -15 -7 -34 -14 -42 -14 -8 0 -10 -3
-5 -9 6 -5 30 -5 60 0 28 5 82 14 120 19 39 6 99 15 135 21 36 6 115 14 175
19 61 5 142 14 180 20 39 5 102 15 140 20 139 20 540 30 803 20 140 -6 258
-12 262 -15 5 -3 55 -10 112 -15 56 -6 123 -15 148 -20 25 -5 74 -14 110 -20
71 -11 166 -30 275 -55 39 -8 90 -20 115 -25 25 -6 56 -14 70 -19 14 -4 52
-16 85 -26 33 -9 78 -23 100 -30 22 -7 74 -23 115 -36 41 -12 79 -26 84 -31 6
-4 17 -8 25 -8 9 0 28 -6 43 -14 15 -8 40 -17 57 -21 17 -4 33 -11 36 -16 4
-5 13 -9 21 -9 8 0 36 -9 62 -21 45 -20 95 -41 137 -59 28 -11 466 -228 485
-240 121 -73 247 -148 268 -159 15 -8 29 -18 30 -23 2 -4 8 -8 13 -8 4 0 43
-20 85 -45 41 -25 78 -45 81 -45 3 0 42 -22 87 -49 44 -27 95 -57 113 -67 17
-11 59 -36 93 -56 132 -81 103 -47 -180 206 -94 85 -281 214 -405 281 -38 20
-74 41 -80 45 -49 37 -437 229 -598 296 -98 40 -131 54 -149 64 -10 6 -23 10
-29 10 -6 0 -25 6 -42 14 -18 8 -61 24 -97 35 -36 12 -74 26 -85 31 -11 5 -54
18 -95 30 -41 12 -84 25 -95 30 -20 8 -34 12 -210 56 -55 13 -116 29 -135 34
-115 32 -428 82 -665 106 -148 15 -766 30 -790 19z"/>
<path d="M3410 4180 c-302 -20 -663 -77 -915 -145 -33 -9 -82 -22 -110 -30
-27 -7 -111 -34 -185 -60 -74 -25 -150 -51 -167 -57 -18 -6 -33 -16 -33 -21 0
-9 74 -5 270 14 188 19 745 1 819 -26 32 -12 -11 -27 -105 -35 -200 -19 -494
-65 -664 -106 -248 -59 -438 -121 -598 -195 -34 -16 -64 -29 -67 -29 -7 0
-209 -123 -235 -144 -101 -81 -250 -265 -250 -309 0 -7 -8 -25 -17 -42 -14
-25 -17 -57 -17 -185 -1 -150 1 -158 32 -245 75 -209 171 -355 351 -536 58
-58 138 -129 176 -159 39 -30 72 -57 75 -60 9 -9 203 -137 270 -177 36 -22
142 -77 235 -123 94 -45 182 -89 197 -96 31 -17 62 -18 53 -3 -4 5 -17 15 -28
20 -31 13 -101 55 -182 107 -38 25 -101 66 -140 90 -206 133 -426 318 -481
404 -51 79 -28 77 96 -10 186 -132 495 -306 695 -392 126 -54 138 -59 205 -85
25 -9 56 -21 69 -27 50 -19 298 -100 349 -114 28 -7 78 -21 110 -29 175 -48
449 -101 460 -90 4 4 1 10 -6 12 -21 8 -499 249 -577 291 -38 21 -100 55 -137
75 -37 20 -85 47 -105 60 -21 13 -48 27 -60 31 -13 4 -23 12 -23 17 0 5 -5 9
-11 9 -12 0 -130 69 -139 81 -3 3 -15 9 -27 13 -13 4 -23 12 -23 17 0 5 -4 9
-10 9 -21 0 -346 226 -445 310 -80 67 -172 161 -215 220 -79 106 -97 187 -61
259 45 88 354 275 586 356 28 9 59 21 70 26 66 28 289 79 435 99 41 6 102 16
135 21 94 16 572 23 725 10 246 -21 344 -30 405 -41 33 -5 94 -15 135 -21 206
-31 403 -69 590 -114 36 -9 92 -22 125 -29 33 -8 86 -21 118 -30 31 -9 83 -23
115 -31 31 -9 75 -20 97 -26 22 -5 51 -14 65 -18 14 -5 52 -17 85 -26 82 -24
186 -55 210 -65 11 -4 94 -31 185 -60 91 -29 170 -56 175 -60 6 -3 44 -17 85
-29 41 -13 79 -28 84 -32 6 -5 16 -9 24 -9 8 0 28 -6 45 -14 18 -7 61 -24 97
-36 36 -13 69 -27 74 -32 6 -4 16 -8 24 -8 8 0 28 -6 45 -14 18 -8 86 -35 152
-61 66 -26 140 -56 165 -67 25 -10 56 -24 70 -30 77 -32 98 -41 123 -54 16 -8
33 -14 38 -14 5 0 44 -16 86 -36 43 -19 87 -39 98 -44 49 -21 249 -113 380
-175 244 -116 312 -149 348 -172 64 -40 74 -26 28 37 -152 208 -338 411 -526
575 -82 72 -266 211 -365 276 -147 97 -182 119 -190 119 -5 0 -15 6 -22 13 -8
6 -29 20 -48 31 -19 10 -64 34 -100 54 -121 66 -244 124 -420 198 -19 8 -42
19 -50 23 -9 5 -30 12 -48 15 -17 4 -34 12 -37 17 -4 5 -14 9 -23 9 -9 0 -28
6 -42 13 -14 8 -41 17 -60 20 -18 4 -41 14 -49 21 -9 8 -31 16 -50 18 -54 5
-52 28 3 28 24 0 47 -4 50 -9 3 -4 28 -11 55 -15 28 -4 52 -10 55 -15 3 -4 26
-11 51 -14 24 -4 53 -11 62 -16 10 -5 38 -14 63 -20 70 -18 140 -38 200 -55
30 -9 73 -21 95 -27 22 -5 49 -13 60 -18 11 -4 47 -16 80 -26 33 -9 78 -23
100 -30 22 -7 74 -22 115 -34 41 -13 84 -26 95 -30 54 -21 136 -44 140 -39 3
3 -34 32 -82 65 -48 33 -118 80 -154 105 -74 50 -398 247 -499 302 -61 34
-452 228 -495 246 -11 5 -42 18 -70 30 -27 12 -66 28 -85 36 -19 8 -43 19 -52
24 -10 6 -23 10 -30 10 -7 0 -25 6 -39 14 -15 7 -55 23 -90 35 -35 12 -73 26
-84 31 -22 9 -165 56 -260 84 -33 10 -73 23 -90 28 -16 5 -55 16 -85 23 -30 8
-84 21 -120 30 -122 30 -303 67 -395 81 -16 3 -70 11 -120 19 -268 43 -792 65
-1095 45z"/>
<path d="M4737 2958 c-7 -31 -42 -161 -62 -228 -16 -55 -28 -100 -60 -235 -9
-38 -22 -95 -30 -125 -7 -30 -21 -86 -30 -125 -31 -128 -46 -190 -61 -250 -27
-109 -63 -266 -84 -368 -4 -21 -9 -39 -11 -41 -9 -8 -99 -46 -108 -46 -6 0
-11 -4 -11 -9 0 -5 -9 -13 -21 -16 -43 -14 -126 -95 -174 -169 -19 -30 -35
-58 -35 -62 0 -3 -7 -20 -14 -37 -38 -82 -38 -282 -1 -364 8 -17 15 -34 15
-37 0 -18 75 -122 117 -162 158 -151 411 -190 598 -91 26 13 24 14 -54 20 -48
4 -91 13 -104 22 -12 8 -29 15 -39 15 -10 0 -18 6 -18 13 0 11 38 15 171 20
133 5 177 10 196 22 14 9 22 19 19 23 -4 3 -50 5 -104 3 -54 -1 -110 1 -125 4
-44 11 -33 33 21 40 26 3 61 10 77 15 17 5 50 12 74 16 72 11 136 38 139 58 3
16 0 18 -19 12 -101 -30 -208 -31 -202 -1 2 11 93 44 139 52 18 3 66 -2 109
-11 85 -18 409 -23 419 -7 9 13 -75 29 -188 35 -103 6 -216 24 -217 35 0 3 -2
53 -4 109 -1 58 -8 109 -14 115 -6 6 -11 18 -11 26 0 23 -40 101 -80 156 -44
60 -104 111 -172 146 -62 33 -69 43 -63 94 5 39 5 40 -7 10 -15 -39 -36 -54
-73 -55 -64 0 -70 22 -33 130 13 41 35 109 47 150 13 41 26 84 31 95 7 18 23
71 66 215 8 30 20 64 24 75 5 11 13 38 18 60 6 22 18 64 26 93 9 28 23 76 31
105 9 28 23 75 31 102 8 28 21 73 28 100 8 28 22 75 31 105 33 109 34 104 -32
122 -32 10 -74 21 -93 26 -19 6 -42 13 -51 16 -12 5 -18 1 -22 -16z"/>
<path d="M5006 2600 c-4 -14 -17 -45 -28 -70 -11 -25 -32 -76 -45 -115 -13
-38 -27 -79 -32 -90 -33 -80 -107 -383 -99 -406 3 -8 8 1 12 19 4 17 11 32 16
32 5 0 11 13 15 30 4 16 11 32 16 35 5 4 9 13 9 22 0 8 6 29 14 46 48 107 140
445 134 493 l-3 29 -9 -25z"/>
</g>
</svg>
